<svg viewBox="0 0 30 22" version="1.1" xmlns="http://www.w3.org/2000/svg" xmlns:xlink="http://www.w3.org/1999/xlink">
    <path fill="currentColor" d="M3.38024682,0 C1.51338805,0 0,1.56125662 0,3.50310488 L0,17.4968951 C0,19.4316065 1.5146426,21 3.38024682,21 L26.3390514,21 C28.2059102,21 29.7192982,19.4387434 29.7192982,17.4968951 L29.7192982,3.50310488 C29.7192982,1.56839348 28.2046556,0 26.3390514,0 L3.38024682,0 Z M8.85726036,12.1081535 C8.22716807,13.6561078 7.18173252,14.8278509 5.68871355,15.7859005 C5.52946713,15.8781384 5.36342377,15.9310345 5.18606508,15.9310345 C4.84311365,15.9310345 4.53477545,15.741935 4.38481974,15.4280657 C4.29743203,15.264069 4.24561404,15.0921721 4.24561404,14.9133156 C4.24561404,14.5536465 4.43867654,14.2328496 4.74652995,14.0725375 C5.81514516,13.4827073 6.66416982,12.5528195 7.13541391,11.5000285 C7.69427201,10.269973 7.88672959,9.27527965 7.88672959,7.39539493 C7.88672959,6.84064842 8.31830784,6.51724138 8.82718064,6.51724138 C9.31603736,6.51724138 9.74085879,6.8512414 9.74085879,7.39539493 C9.74085879,9.25939553 9.93269038,10.2027339 10.5139302,11.4055435 C11.0040008,12.4274254 11.9397074,13.4311214 12.985934,14.0386472 C13.291457,14.1979143 13.4444444,14.5235655 13.4444444,14.8667938 C13.4444444,15.0503119 13.3930825,15.2353 13.3052387,15.4001526 L13.2825491,15.4389493 C13.0985236,15.7267431 12.8182917,15.8845127 12.5039934,15.8845127 C12.3279715,15.8845127 12.1505395,15.8309635 11.9741847,15.7283237 C10.6033277,14.8594127 9.51086992,13.6186738 8.85726036,12.1081535 Z M20.8865001,12.1081535 C20.2564079,13.6561078 19.2109723,14.8278509 17.7179533,15.7859005 C17.5587069,15.8781384 17.3926635,15.9310345 17.2153049,15.9310345 C16.8723534,15.9310345 16.5640152,15.741935 16.4140595,15.4280657 C16.3266718,15.264069 16.2748538,15.0921721 16.2748538,14.9133156 C16.2748538,14.5536465 16.4679163,14.2328496 16.7757697,14.0725375 C17.8443849,13.4827073 18.6934096,12.5528195 19.1646537,11.5000285 C19.7235118,10.269973 19.9159694,9.27527965 19.9159694,7.39539493 C19.9159694,6.84064842 20.3475476,6.51724138 20.8564204,6.51724138 C21.3452771,6.51724138 21.7700986,6.8512414 21.7700986,7.39539493 C21.7700986,9.25939553 21.9619301,10.2027339 22.54317,11.4055435 C23.0332406,12.4274254 23.9689472,13.4311214 25.0151737,14.0386472 C25.3206968,14.1979143 25.4736842,14.5235655 25.4736842,14.8667938 C25.4736842,15.0503119 25.4223223,15.2353 25.3344785,15.4001526 L25.3117889,15.4389493 C25.1277633,15.7267431 24.8475315,15.8845127 24.5332332,15.8845127 C24.3572112,15.8845127 24.1797792,15.8309635 24.0034245,15.7283237 C22.6325674,14.8594127 21.5401097,13.6186738 20.8865001,12.1081535 Z" id="Rectangle-5-copy-2">
    </path>
</svg>